<svg width="114" height="22" viewBox="0 0 114 22" fill="none" xmlns="http://www.w3.org/2000/svg">
<g id="Frame 337">
<path id="Vector" d="M17.9835 3.65292H22V0.154917C21.3071 0.10725 18.9239 0 16.1485 0C10.3575 0 6.39047 1.82142 6.39047 5.16908V8.25H0V12.1605H6.39047V22H14.2255V12.1614H20.3575L21.3309 8.25092H14.2236V5.55683C14.2255 4.42658 14.8341 3.65292 17.9835 3.65292Z" fill="white"/>
<g id="Group 47">
<path id="Vector_2" d="M67.9945 22V21.9991H68V13.9306C68 9.98339 67.1502 6.94281 62.5357 6.94281C60.3174 6.94281 58.8288 8.16014 58.221 9.31423H58.1568V7.31131H53.7816V21.9991H58.3374V14.7262C58.3374 12.8113 58.7004 10.9596 61.0718 10.9596C63.4084 10.9596 63.4432 13.145 63.4432 14.8491V22H67.9945Z" fill="white"/>
<path id="Vector_3" d="M46.363 7.31226H50.9244V22H46.363V7.31226Z" fill="white"/>
<path id="Vector_4" d="M48.6418 0C47.1834 0 46 1.18342 46 2.64183C46 4.10025 47.1834 5.30842 48.6418 5.30842C50.1002 5.30842 51.2836 4.10025 51.2836 2.64183C51.2827 1.18342 50.0993 0 48.6418 0V0Z" fill="white"/>
</g>
<g id="Group 48">
<path id="Vector_5" d="M113.944 6.46808C113.893 5.29913 113.703 4.49549 113.433 3.79912C113.153 3.05995 112.723 2.39817 112.16 1.84802C111.61 1.28932 110.944 0.855181 110.213 0.580193C109.512 0.309403 108.713 0.12037 107.544 0.0688308C106.366 0.0129267 105.992 0 103.004 0C100.017 0 99.6429 0.0129267 98.4693 0.0644659C97.3001 0.116005 96.4963 0.305206 95.8 0.575828C95.0605 0.855181 94.3986 1.28495 93.8484 1.84802C93.2896 2.39817 92.8555 3.06431 92.5803 3.79493C92.3095 4.49549 92.1204 5.29477 92.0688 6.46371C92.0129 7.64139 92 8.01526 92 11.0022C92 13.9891 92.0129 14.363 92.0645 15.5363C92.116 16.7052 92.3053 17.5089 92.5761 18.2052C92.8555 18.9444 93.2896 19.6062 93.8484 20.1563C94.3986 20.715 95.0649 21.1492 95.7957 21.4242C96.4963 21.695 97.2958 21.884 98.4651 21.9355C99.6385 21.9872 100.013 22 103 22C105.988 22 106.362 21.9872 107.535 21.9355C108.704 21.884 109.508 21.695 110.204 21.4242C111.683 20.8525 112.852 19.6836 113.424 18.2052C113.695 17.5047 113.884 16.7052 113.936 15.5363C113.987 14.363 114 13.9891 114 11.0022C114 8.01526 113.996 7.64139 113.944 6.46808ZM111.963 15.4503C111.915 16.5248 111.735 17.105 111.584 17.4918C111.215 18.4502 110.454 19.2108 109.495 19.5805C109.108 19.7309 108.524 19.9114 107.453 19.9586C106.293 20.0103 105.945 20.023 103.009 20.023C100.073 20.023 99.7203 20.0103 98.5638 19.9586C97.4892 19.9114 96.9089 19.7309 96.522 19.5805C96.045 19.4042 95.6108 19.1249 95.2583 18.7596C94.893 18.4028 94.6136 17.9731 94.4372 17.4961C94.2868 17.1093 94.1063 16.5248 94.0591 15.4547C94.0074 14.2943 93.9946 13.9461 93.9946 11.0107C93.9946 8.07536 94.0074 7.72298 94.0591 6.56696C94.1063 5.49253 94.2868 4.91234 94.4372 4.52554C94.6136 4.04843 94.893 3.61446 95.2627 3.26191C95.6193 2.8966 96.0492 2.61725 96.5264 2.44114C96.9133 2.29072 97.4979 2.11025 98.5682 2.06291C99.7288 2.01137 100.077 1.99844 103.013 1.99844C105.953 1.99844 106.301 2.01137 107.458 2.06291C108.532 2.11025 109.113 2.29072 109.499 2.44114C109.976 2.61725 110.411 2.8966 110.763 3.26191C111.129 3.61865 111.408 4.04843 111.584 4.52554C111.735 4.91234 111.915 5.49673 111.963 6.56696C112.014 7.72735 112.027 8.07536 112.027 11.0107C112.027 13.9461 112.014 14.2899 111.963 15.4503Z" fill="white"/>
<path id="Vector_6" d="M103.004 5.35071C99.8836 5.35071 97.3517 7.882 97.3517 11.0022C97.3517 14.1224 99.8836 16.6537 103.004 16.6537C106.125 16.6537 108.657 14.1224 108.657 11.0022C108.657 7.882 106.125 5.35071 103.004 5.35071ZM103.004 14.6682C100.98 14.6682 99.3376 13.0265 99.3376 11.0022C99.3376 8.97792 100.98 7.33622 103.004 7.33622C105.029 7.33622 106.671 8.97792 106.671 11.0022C106.671 13.0265 105.029 14.6682 103.004 14.6682Z" fill="white"/>
<path id="Vector_7" d="M110.2 5.12729C110.2 5.85589 109.609 6.44666 108.88 6.44666C108.152 6.44666 107.561 5.85589 107.561 5.12729C107.561 4.39852 108.152 3.80792 108.88 3.80792C109.609 3.80792 110.2 4.39852 110.2 5.12729Z" fill="white"/>
</g>
</g>
</svg>
